{
    "streams": [
        {
            "index": 0,
            "codec_name": "hevc",
            "codec_long_name": "H.265 / HEVC (High Efficiency Video Coding)",
            "profile": "Main 10",
            "codec_type": "video",
            "codec_tag_string": "[0][0][0][0]",
            "codec_tag": "0x0000",
            "width": 1920,
            "height": 1080,
            "coded_width": 1920,
            "coded_height": 1080,
            "closed_captions": 0,
            "film_grain": 0,
            "has_b_frames": 2,
            "sample_aspect_ratio": "1:1",
            "display_aspect_ratio": "16:9",
            "pix_fmt": "yuv420p10le",
            "level": 120,
            "color_range": "tv",
            "color_space": "bt709",
            "color_transfer": "bt709",
            "color_primaries": "bt709",
            "chroma_location": "left",
            "refs": 1,
            "r_frame_rate": "24000/1001",
            "avg_frame_rate": "24000/1001",
            "time_base": "1/1000",
            "start_pts": 0,
            "start_time": "0.000000",
            "extradata_size": 1980,
            "disposition": {
                "default": 1,
                "dub": 0,
                "original": 0,
                "comment": 0,
                "lyrics": 0,
                "karaoke": 0,
                "forced": 0,
                "hearing_impaired": 0,
                "visual_impaired": 0,
                "clean_effects": 0,
                "attached_pic": 0,
                "timed_thumbnails": 0,
                "captions": 0,
                "descriptions": 0,
                "metadata": 0,
                "dependent": 0,
                "still_image": 0
            },
            "tags": {
                "title": "Presented By EMBER",
                "BPS": "2508791",
                "DURATION": "00:24:46.402000000",
                "NUMBER_OF_FRAMES": "35638",
                "NUMBER_OF_BYTES": "466134070",
                "_STATISTICS_WRITING_APP": "mkvmerge v69.0.0 ('Day And Age') 64-bit",
                "_STATISTICS_WRITING_DATE_UTC": "2023-07-06 02:46:42",
                "_STATISTICS_TAGS": "BPS DURATION NUMBER_OF_FRAMES NUMBER_OF_BYTES"
            }
        },
        {
            "index": 1,
            "codec_name": "aac",
            "codec_long_name": "AAC (Advanced Audio Coding)",
            "profile": "HE-AAC",
            "codec_type": "audio",
            "codec_tag_string": "[0][0][0][0]",
            "codec_tag": "0x0000",
            "sample_fmt": "fltp",
            "sample_rate": "48000",
            "channels": 2,
            "channel_layout": "stereo",
            "bits_per_sample": 0,
            "r_frame_rate": "0/0",
            "avg_frame_rate": "0/0",
            "time_base": "1/1000",
            "start_pts": 0,
            "start_time": "0.000000",
            "extradata_size": 5,
            "disposition": {
                "default": 1,
                "dub": 0,
                "original": 0,
                "comment": 0,
                "lyrics": 0,
                "karaoke": 0,
                "forced": 0,
                "hearing_impaired": 0,
                "visual_impaired": 0,
                "clean_effects": 0,
                "attached_pic": 0,
                "timed_thumbnails": 0,
                "captions": 0,
                "descriptions": 0,
                "metadata": 0,
                "dependent": 0,
                "still_image": 0
            },
            "tags": {
                "language": "eng",
                "BPS": "127999",
                "DURATION": "00:24:47.915000000",
                "NUMBER_OF_FRAMES": "34873",
                "NUMBER_OF_BYTES": "23806634",
                "_STATISTICS_WRITING_APP": "mkvmerge v69.0.0 ('Day And Age') 64-bit",
                "_STATISTICS_WRITING_DATE_UTC": "2023-07-06 02:46:42",
                "_STATISTICS_TAGS": "BPS DURATION NUMBER_OF_FRAMES NUMBER_OF_BYTES"
            }
        },
        {
            "index": 2,
            "codec_name": "aac",
            "codec_long_name": "AAC (Advanced Audio Coding)",
            "profile": "HE-AAC",
            "codec_type": "audio",
            "codec_tag_string": "[0][0][0][0]",
            "codec_tag": "0x0000",
            "sample_fmt": "fltp",
            "sample_rate": "48000",
            "channels": 2,
            "channel_layout": "stereo",
            "bits_per_sample": 0,
            "r_frame_rate": "0/0",
            "avg_frame_rate": "0/0",
            "time_base": "1/1000",
            "start_pts": 0,
            "start_time": "0.000000",
            "extradata_size": 5,
            "disposition": {
                "default": 0,
                "dub": 0,
                "original": 0,
                "comment": 0,
                "lyrics": 0,
                "karaoke": 0,
                "forced": 0,
                "hearing_impaired": 0,
                "visual_impaired": 0,
                "clean_effects": 0,
                "attached_pic": 0,
                "timed_thumbnails": 0,
                "captions": 0,
                "descriptions": 0,
                "metadata": 0,
                "dependent": 0,
                "still_image": 0
            },
            "tags": {
                "language": "jpn",
                "BPS": "127999",
                "DURATION": "00:24:47.915000000",
                "NUMBER_OF_FRAMES": "34873",
                "NUMBER_OF_BYTES": "23806634",
                "_STATISTICS_WRITING_APP": "mkvmerge v69.0.0 ('Day And Age') 64-bit",
                "_STATISTICS_WRITING_DATE_UTC": "2023-07-06 02:46:42",
                "_STATISTICS_TAGS": "BPS DURATION NUMBER_OF_FRAMES NUMBER_OF_BYTES"
            }
        },
        {
            "index": 3,
            "codec_name": "subrip",
            "codec_long_name": "SubRip subtitle",
            "codec_type": "subtitle",
            "codec_tag_string": "[0][0][0][0]",
            "codec_tag": "0x0000",
            "r_frame_rate": "0/0",
            "avg_frame_rate": "0/0",
            "time_base": "1/1000",
            "start_pts": 0,
            "start_time": "0.000000",
            "duration_ts": 1487915,
            "duration": "1487.915000",
            "disposition": {
                "default": 1,
                "dub": 0,
                "original": 0,
                "comment": 0,
                "lyrics": 0,
                "karaoke": 0,
                "forced": 1,
                "hearing_impaired": 0,
                "visual_impaired": 0,
                "clean_effects": 0,
                "attached_pic": 0,
                "timed_thumbnails": 0,
                "captions": 0,
                "descriptions": 0,
                "metadata": 0,
                "dependent": 0,
                "still_image": 0
            },
            "tags": {
                "language": "eng",
                "title": "Forced",
                "BPS": "0",
                "DURATION": "00:22:34.979000000",
                "NUMBER_OF_FRAMES": "3",
                "NUMBER_OF_BYTES": "61",
                "_STATISTICS_WRITING_APP": "mkvmerge v69.0.0 ('Day And Age') 64-bit",
                "_STATISTICS_WRITING_DATE_UTC": "2023-07-06 02:46:42",
                "_STATISTICS_TAGS": "BPS DURATION NUMBER_OF_FRAMES NUMBER_OF_BYTES"
            }
        },
        {
            "index": 4,
            "codec_name": "subrip",
            "codec_long_name": "SubRip subtitle",
            "codec_type": "subtitle",
            "codec_tag_string": "[0][0][0][0]",
            "codec_tag": "0x0000",
            "r_frame_rate": "0/0",
            "avg_frame_rate": "0/0",
            "time_base": "1/1000",
            "start_pts": 0,
            "start_time": "0.000000",
            "duration_ts": 1487915,
            "duration": "1487.915000",
            "disposition": {
                "default": 0,
                "dub": 0,
                "original": 0,
                "comment": 0,
                "lyrics": 0,
                "karaoke": 0,
                "forced": 0,
                "hearing_impaired": 0,
                "visual_impaired": 0,
                "clean_effects": 0,
                "attached_pic": 0,
                "timed_thumbnails": 0,
                "captions": 0,
                "descriptions": 0,
                "metadata": 0,
                "dependent": 0,
                "still_image": 0
            },
            "tags": {
                "language": "eng",
                "BPS": "48",
                "DURATION": "00:23:35.956000000",
                "NUMBER_OF_FRAMES": "241",
                "NUMBER_OF_BYTES": "8591",
                "_STATISTICS_WRITING_APP": "mkvmerge v69.0.0 ('Day And Age') 64-bit",
                "_STATISTICS_WRITING_DATE_UTC": "2023-07-06 02:46:42",
                "_STATISTICS_TAGS": "BPS DURATION NUMBER_OF_FRAMES NUMBER_OF_BYTES"
            }
        },
        {
            "index": 5,
            "codec_name": "subrip",
            "codec_long_name": "SubRip subtitle",
            "codec_type": "subtitle",
            "codec_tag_string": "[0][0][0][0]",
            "codec_tag": "0x0000",
            "r_frame_rate": "0/0",
            "avg_frame_rate": "0/0",
            "time_base": "1/1000",
            "start_pts": 0,
            "start_time": "0.000000",
            "duration_ts": 1487915,
            "duration": "1487.915000",
            "disposition": {
                "default": 0,
                "dub": 0,
                "original": 0,
                "comment": 0,
                "lyrics": 0,
                "karaoke": 0,
                "forced": 0,
                "hearing_impaired": 0,
                "visual_impaired": 0,
                "clean_effects": 0,
                "attached_pic": 0,
                "timed_thumbnails": 0,
                "captions": 0,
                "descriptions": 0,
                "metadata": 0,
                "dependent": 0,
                "still_image": 0
            },
            "tags": {
                "language": "jpn",
                "title": "SDH",
                "BPS": "63",
                "DURATION": "00:23:38.500000000",
                "NUMBER_OF_FRAMES": "295",
                "NUMBER_OF_BYTES": "11251",
                "_STATISTICS_WRITING_APP": "mkvmerge v69.0.0 ('Day And Age') 64-bit",
                "_STATISTICS_WRITING_DATE_UTC": "2023-07-06 02:46:42",
                "_STATISTICS_TAGS": "BPS DURATION NUMBER_OF_FRAMES NUMBER_OF_BYTES"
            }
        },
        {
            "index": 6,
            "codec_name": "mjpeg",
            "codec_long_name": "Motion JPEG",
            "profile": "Progressive",
            "codec_type": "video",
            "codec_tag_string": "[0][0][0][0]",
            "codec_tag": "0x0000",
            "width": 400,
            "height": 565,
            "coded_width": 400,
            "coded_height": 565,
            "closed_captions": 0,
            "film_grain": 0,
            "has_b_frames": 0,
            "sample_aspect_ratio": "1:1",
            "display_aspect_ratio": "80:113",
            "pix_fmt": "yuvj420p",
            "level": -99,
            "color_range": "pc",
            "color_space": "bt470bg",
            "chroma_location": "center",
            "refs": 1,
            "r_frame_rate": "90000/1",
            "avg_frame_rate": "0/0",
            "time_base": "1/90000",
            "start_pts": 0,
            "start_time": "0.000000",
            "duration_ts": 133912350,
            "duration": "1487.915000",
            "bits_per_raw_sample": "8",
            "disposition": {
                "default": 0,
                "dub": 0,
                "original": 0,
                "comment": 0,
                "lyrics": 0,
                "karaoke": 0,
                "forced": 0,
                "hearing_impaired": 0,
                "visual_impaired": 0,
                "clean_effects": 0,
                "attached_pic": 1,
                "timed_thumbnails": 0,
                "captions": 0,
                "descriptions": 0,
                "metadata": 0,
                "dependent": 0,
                "still_image": 0
            },
            "tags": {
                "filename": "cover.jpg",
                "mimetype": "image/jpeg"
            }
        }
    ],
    "format": {
        "filename": "C:\\Temp\\Torrents\\[EMBER] Watashi no Shiawase na Kekkon - 01.mkv",
        "nb_streams": 7,
        "nb_programs": 0,
        "format_name": "matroska,webm",
        "format_long_name": "Matroska / WebM",
        "start_time": "0.000000",
        "duration": "1487.915000",
        "size": "514384774",
        "bit_rate": "2765667",
        "probe_score": 100,
        "tags": {
            "title": "S01E01-The Meeting",
            "encoder": "libebml v1.4.2 + libmatroska v1.6.4",
            "creation_time": "2023-07-06T02:46:42.000000Z"
        }
    }
}
